<svg xmlns="http://www.w3.org/2000/svg" fill="#d9d9d9" xmlns:xlink="http://www.w3.org/1999/xlink" viewBox="0 0 16 16"><defs><path id="a" d="M1.186 0C1.2.894 0 1.6 0 2.39 0 3.399.643 3.685 1.186 4 1.219 3.115 2 2.748 2 1.81 2 .87 1.648.47 1.186 0z"/></defs><path d="M14 6V5H0v2c0 1.925.808 3.785 2.216 5.104.262.244.46.553.594.896H1a2 2 0 002 2h8a2 2 0 002-2h-1.81c.134-.343.333-.652.594-.896a7 7 0 001.583-2.216c.2.067.41.112.633.112 1.103 0 2-.897 2-2s-.897-2-2-2z"/><use transform="translate(3 1)" xlink:href="#a"/><use transform="translate(6 1)" xlink:href="#a"/><use transform="translate(9 1)" xlink:href="#a"/></svg>